<?xml version="1.0" standalone="no"?>
<!DOCTYPE svg PUBLIC "-//W3C//DTD SVG 20010904//EN"
 "http://www.w3.org/TR/2001/REC-SVG-20010904/DTD/svg10.dtd">
<svg version="1.0" xmlns="http://www.w3.org/2000/svg"
 width="500.000000pt" height="500.000000pt" viewBox="0 0 500.000000 500.000000"
 preserveAspectRatio="xMidYMid meet">
<metadata>
Created by potrace 1.14, written by Peter Selinger 2001-2017
</metadata>
<g transform="translate(0.000000,500.000000) scale(0.100000,-0.100000)"
fill="#000000" stroke="none">
<path d="M0 2500 l0 -2500 2500 0 2500 0 0 2500 0 2500 -2500 0 -2500 0 0
-2500z m2347 873 c-3 -21 -15 -96 -26 -168 -28 -182 -60 -655 -44 -655 20 0
206 127 233 159 13 16 122 94 183 130 152 93 307 92 405 -2 49 -47 65 -83 59
-135 -6 -55 -30 -88 -91 -127 -42 -25 -57 -29 -117 -29 -61 1 -80 6 -145 40
-85 43 -132 48 -200 19 l-39 -16 52 -25 c110 -53 167 -127 391 -509 103 -177
214 -308 313 -370 22 -14 45 -37 51 -51 25 -53 14 -54 -426 -52 l-400 3 -15
27 c-15 26 -14 29 11 55 68 74 78 133 44 284 -56 250 -127 416 -199 469 -43
31 -106 42 -108 18 -1 -32 3 -187 6 -223 13 -135 17 -169 31 -254 19 -123 58
-236 95 -278 37 -43 38 -80 3 -93 -15 -6 -178 -10 -393 -10 -310 0 -370 2
-381 15 -18 22 -5 47 50 94 30 26 60 64 77 99 l28 57 0 525 c0 608 6 567 -106
677 -54 53 -62 66 -53 80 6 11 25 19 45 20 150 11 260 48 399 136 187 118 203
127 238 127 34 0 35 0 29 -37z m1419 -1494 c103 -63 107 -249 6 -316 -61 -41
-160 -39 -209 4 -83 74 -89 215 -11 290 55 53 149 63 214 22z"/>
</g>
</svg>
